<svg xmlns="http://www.w3.org/2000/svg" width="86.204" height="126.787" viewBox="0 0 86.204 126.787">
  <g id="SvgjsG1882" transform="translate(-27.335 -7.044)">
    <g id="Grupo_1" data-name="Grupo 1">
      <path id="Caminho_1" data-name="Caminho 1" d="M99.7,119.092H41.173a6.623,6.623,0,0,1-6.372-6.834V13.876a6.621,6.621,0,0,1,6.372-6.832H99.7a6.62,6.62,0,0,1,6.37,6.832v98.382A6.622,6.622,0,0,1,99.7,119.092ZM41.173,8.6a5.062,5.062,0,0,0-4.809,5.27v98.384a5.061,5.061,0,0,0,4.809,5.269H99.7a5.061,5.061,0,0,0,4.809-5.269V13.876A5.061,5.061,0,0,0,99.7,8.606Z" fill="#fff"/>
    </g>
    <g id="Grupo_2" data-name="Grupo 2">
      <path id="Caminho_2" data-name="Caminho 2" d="M96.4,64.627H44.473a3.626,3.626,0,0,1,0-7.252H96.394a3.626,3.626,0,0,1,0,7.252Zm-51.923-5.69a2.064,2.064,0,1,0,0,4.128H96.394a2.064,2.064,0,0,0,0-4.128Z" fill="#fff"/>
    </g>
    <g id="Grupo_3" data-name="Grupo 3">
      <path id="Caminho_3" data-name="Caminho 3" d="M96.4,70.427H44.473a3.625,3.625,0,0,1,0-7.251H96.394a3.625,3.625,0,1,1,0,7.251Zm-51.923-5.69a2.065,2.065,0,0,0,0,4.129H96.394a2.065,2.065,0,0,0,0-4.129Z" fill="#fff"/>
    </g>
    <g id="Grupo_4" data-name="Grupo 4">
      <path id="Caminho_4" data-name="Caminho 4" d="M42.967,37.316a.618.618,0,0,1-.618.617h0a.617.617,0,0,1-.617-.617V28.658a.617.617,0,0,1,.617-.618h0a.617.617,0,0,1,.618.618Z" fill="#fff"/>
    </g>
    <g id="Grupo_5" data-name="Grupo 5">
      <path id="Caminho_5" data-name="Caminho 5" d="M99.144,37.316a.617.617,0,0,1-.617.617h0a.618.618,0,0,1-.618-.617V28.658a.618.618,0,0,1,.618-.618h0a.617.617,0,0,1,.617.618Z" fill="#fff"/>
    </g>
    <g id="Grupo_6" data-name="Grupo 6">
      <path id="Caminho_6" data-name="Caminho 6" d="M110.078,118.364a3.429,3.429,0,0,1-3.461-3.388V59.564a3.462,3.462,0,0,1,6.923,0v55.411A3.428,3.428,0,0,1,110.078,118.364Zm0-60.629a1.869,1.869,0,0,0-1.9,1.83v55.411a1.9,1.9,0,0,0,3.8,0V59.564A1.869,1.869,0,0,0,110.078,57.734Z" fill="#fff"/>
    </g>
    <g id="Grupo_7" data-name="Grupo 7">
      <path id="Caminho_7" data-name="Caminho 7" d="M30.8,118.085a3.423,3.423,0,0,1-3.461-3.378V59.552a3.462,3.462,0,0,1,6.923,0v55.154A3.424,3.424,0,0,1,30.8,118.085Zm0-60.35a1.861,1.861,0,0,0-1.9,1.817v55.154a1.9,1.9,0,0,0,3.8,0V59.552A1.862,1.862,0,0,0,30.8,57.734Z" fill="#fff"/>
    </g>
    <g id="Grupo_8" data-name="Grupo 8">
      <path id="Caminho_8" data-name="Caminho 8" d="M54.906,133.83H40.352c-2.856,0-5.18-3.079-5.18-6.859s2.323-6.856,5.18-6.856H54.907c2.856,0,5.18,3.078,5.18,6.856S57.761,133.83,54.906,133.83ZM40.352,121.676c-1.995,0-3.618,2.377-3.618,5.3s1.623,5.3,3.618,5.3H54.907c1.995,0,3.618-2.377,3.618-5.3s-1.623-5.3-3.618-5.3Z" fill="#fff"/>
    </g>
    <g id="Grupo_9" data-name="Grupo 9">
      <path id="Caminho_9" data-name="Caminho 9" d="M100.3,133.83H85.746c-2.856,0-5.181-3.079-5.181-6.859s2.323-6.856,5.181-6.856H100.3c2.856,0,5.18,3.078,5.18,6.856S103.158,133.83,100.3,133.83ZM85.746,121.676c-1.995,0-3.618,2.377-3.618,5.3s1.623,5.3,3.618,5.3H100.3c1.995,0,3.618-2.377,3.618-5.3s-1.623-5.3-3.618-5.3Z" fill="#fff"/>
    </g>
  </g>
</svg>
